<svg width="359" height="300" viewBox="0 0 359 300" fill="none" xmlns="http://www.w3.org/2000/svg">
<g clip-path="url(#clip0)">
<path d="M168.537 300C246.8 300 310.245 296.756 310.245 292.754C310.245 288.751 246.8 285.507 168.537 285.507C90.2742 285.507 26.8293 288.751 26.8293 292.754C26.8293 296.756 90.2742 300 168.537 300Z" fill="#F2F2F2"/>
<path d="M251.329 69.625H249.719V25.5243C249.719 18.7549 247.03 12.2627 242.244 7.47591C237.457 2.68917 230.965 7.47399e-06 224.195 0H130.762C123.992 -1.28125e-05 117.5 2.68913 112.713 7.47585C107.927 12.2626 105.237 18.7548 105.237 25.5242V267.464C105.237 274.234 107.927 280.726 112.713 285.513C117.5 290.299 123.992 292.989 130.762 292.989H224.195C230.964 292.989 237.457 290.299 242.243 285.513C247.03 280.726 249.719 274.234 249.719 267.464V101.017H251.329L251.329 69.625Z" fill="#3F3D56"/>
<path d="M244.287 25.7024V267.286C244.287 272.342 242.278 277.19 238.703 280.765C235.129 284.34 230.28 286.348 225.225 286.348H131.343C126.287 286.348 121.439 284.34 117.864 280.765C114.289 277.19 112.281 272.342 112.281 267.286V25.7024C112.281 20.6468 114.289 15.7984 117.864 12.2235C121.439 8.64873 126.287 6.64037 131.343 6.64027H142.732C142.172 8.01547 141.959 9.50712 142.111 10.984C142.264 12.4609 142.776 13.8778 143.605 15.11C144.433 16.3422 145.551 17.352 146.861 18.0506C148.171 18.7492 149.633 19.1151 151.118 19.1162H204.645C206.129 19.1151 207.591 18.7492 208.901 18.0506C210.211 17.352 211.33 16.3422 212.158 15.11C212.986 13.8778 213.499 12.4609 213.651 10.984C213.803 9.50712 213.59 8.01547 213.03 6.64027H225.225C230.28 6.64037 235.129 8.64872 238.703 12.2235C242.278 15.7984 244.287 20.6468 244.287 25.7024Z" fill="white"/>
<path d="M214.043 129.872C213.418 130.198 212.784 130.507 212.138 130.798C211.55 131.064 210.953 131.314 210.347 131.547C210.125 131.632 209.9 131.716 209.675 131.801C207.892 132.447 206.061 132.952 204.199 133.31C203.278 133.492 202.344 133.634 201.397 133.737C200.616 133.826 199.827 133.889 199.03 133.926C198.463 133.954 197.895 133.967 197.323 133.967C195.059 133.967 192.8 133.756 190.576 133.335C189.996 133.23 189.429 133.105 188.861 132.968C186.115 132.31 183.457 131.329 180.942 130.045C180.717 129.933 180.491 129.812 180.266 129.695C179.932 129.518 179.606 129.333 179.28 129.14C179.437 128.922 179.606 128.709 179.779 128.5C181.663 126.165 184.017 124.254 186.689 122.89C189.361 121.526 192.29 120.741 195.286 120.585C198.282 120.43 201.277 120.907 204.076 121.986C206.875 123.065 209.415 124.722 211.53 126.849C212.265 127.586 212.945 128.374 213.567 129.208C213.732 129.425 213.889 129.647 214.043 129.872Z" fill="#F68420"/>
<path d="M198.127 112.188C207.89 112.188 215.804 104.274 215.804 94.511C215.804 84.7482 207.89 76.8338 198.127 76.8338C188.364 76.8338 180.45 84.7482 180.45 94.511C180.45 104.274 188.364 112.188 198.127 112.188Z" fill="#2F2E41"/>
<path d="M202.828 112.213C209.204 108.728 211.547 100.734 208.062 94.358C204.577 87.9823 196.583 85.6391 190.207 89.1244C183.831 92.6097 181.488 100.604 184.973 106.979C188.459 113.355 196.453 115.698 202.828 112.213Z" fill="#A0616A"/>
<path d="M210.342 92.3932C207.336 94.4654 203.767 95.5682 200.116 95.5536C201.418 96.4567 202.901 97.0668 204.462 97.3417C199.607 98.3831 194.59 98.4112 189.724 97.4245C188.642 97.2511 187.598 96.8926 186.638 96.3648C186.16 96.0977 185.743 95.7328 185.415 95.294C185.087 94.8552 184.855 94.3522 184.734 93.8179C184.411 91.9706 185.85 90.2923 187.346 89.1612C189.636 87.4559 192.277 86.281 195.077 85.7214C197.877 85.1619 200.767 85.2317 203.536 85.9259C205.345 86.3934 207.157 87.1833 208.331 88.6357C209.506 90.0881 209.854 92.3273 208.735 93.8229L210.342 92.3932Z" fill="#2F2E41"/>
<path d="M197.323 61.5022C189.422 61.5011 181.736 64.0835 175.438 68.8559C169.14 73.6283 164.576 80.3289 162.44 87.9365C160.304 95.5441 160.714 103.641 163.607 110.994C166.501 118.347 171.719 124.553 178.467 128.665L178.7 128.801C178.893 128.918 179.087 129.031 179.28 129.14C179.606 129.333 179.932 129.518 180.266 129.695C180.491 129.812 180.717 129.933 180.942 130.045C183.457 131.329 186.115 132.31 188.861 132.968C189.429 133.105 189.996 133.23 190.576 133.334C192.801 133.756 195.059 133.967 197.323 133.967C197.895 133.967 198.463 133.954 199.03 133.926C199.827 133.89 200.617 133.827 201.398 133.737C202.344 133.632 203.278 133.49 204.199 133.31C206.061 132.952 207.892 132.447 209.675 131.801C209.9 131.716 210.125 131.632 210.347 131.547C210.955 131.314 211.552 131.064 212.138 130.798C212.782 130.508 213.417 130.2 214.043 129.872C220.31 126.59 225.49 121.56 228.954 115.392C228.97 115.359 228.99 115.327 229.006 115.295C230.855 111.978 232.166 108.39 232.891 104.663C233.91 99.4161 233.755 94.0092 232.44 88.8291C231.124 83.6491 228.679 78.8241 225.28 74.6996C221.881 70.575 217.612 67.2531 212.779 64.9715C207.946 62.69 202.668 61.5052 197.323 61.5022H197.323ZM228.346 114.824C228.314 114.88 228.286 114.937 228.254 114.989C224.858 121.066 219.751 126.011 213.567 129.208C212.951 129.53 212.325 129.832 211.687 130.114C211.16 130.351 210.621 130.577 210.077 130.786C209.848 130.875 209.614 130.963 209.381 131.044C207.841 131.606 206.263 132.058 204.658 132.396C203.468 132.65 202.266 132.839 201.055 132.964C200.31 133.045 199.554 133.101 198.793 133.129C198.306 133.149 197.815 133.161 197.323 133.161C195.133 133.164 192.946 132.96 190.794 132.553C189.484 132.312 188.19 131.995 186.917 131.603C184.978 131.004 183.093 130.241 181.285 129.321C181.075 129.212 180.866 129.103 180.661 128.991C180.367 128.834 180.069 128.673 179.779 128.5C179.561 128.379 179.344 128.25 179.131 128.121C179.006 128.049 178.881 127.972 178.756 127.896C172.84 124.262 168.121 118.972 165.184 112.682C162.247 106.391 161.222 99.3761 162.235 92.5078C163.249 85.6396 166.256 79.22 170.885 74.0456C175.514 68.8711 181.56 65.1695 188.273 63.3999C194.986 61.6303 202.072 61.8706 208.649 64.091C215.227 66.3114 221.009 70.4142 225.276 75.8904C229.544 81.3666 232.109 87.9752 232.655 94.8964C233.201 101.817 231.703 108.747 228.346 114.824H228.346Z" fill="#3F3D56"/>
<path d="M189.175 77.0778C188.985 75.0778 186.535 73.8465 184.619 74.4506C182.703 75.0547 181.445 76.984 181.064 78.9567C180.881 79.7875 180.864 80.6462 181.014 81.4837C181.163 82.3211 181.477 83.1208 181.936 83.8369C182.905 85.2308 184.684 86.1006 186.344 85.7468C188.239 85.3428 189.552 83.4925 189.928 81.5917C190.303 79.691 189.931 77.7313 189.558 75.8299L189.175 77.0778Z" fill="#2F2E41"/>
<path d="M216.141 79.9349C215.95 77.9349 213.5 76.7036 211.584 77.3077C209.668 77.9119 208.41 79.8411 208.03 81.8138C207.847 82.6446 207.83 83.5034 207.98 84.3408C208.129 85.1783 208.443 85.978 208.902 86.694C209.87 88.0879 211.65 88.9578 213.31 88.6039C215.205 88.2 216.518 86.3497 216.894 84.4489C217.269 82.5481 216.896 80.5884 216.524 78.687L216.141 79.9349Z" fill="#2F2E41"/>
<path d="M134.697 112.215C134.446 112.214 134.198 112.162 133.969 112.06C133.74 111.959 133.534 111.811 133.365 111.625L113.389 89.8321C113.162 89.5853 112.887 89.3883 112.58 89.2533C112.273 89.1184 111.942 89.0485 111.607 89.0481H6.04243C4.44043 89.0463 2.90456 88.4091 1.77178 87.2764C0.63899 86.1436 0.00180245 84.6077 3.8147e-06 83.0057V44.9368C0.00180139 43.3348 0.638989 41.7989 1.77178 40.6661C2.90456 39.5333 4.44043 38.8962 6.04243 38.8944H142.809C144.411 38.8962 145.947 39.5333 147.08 40.6661C148.212 41.7989 148.849 43.3348 148.851 44.9368V83.0057C148.849 84.6077 148.212 86.1436 147.08 87.2764C145.947 88.4092 144.411 89.0464 142.809 89.0482H138.931C138.291 89.0489 137.676 89.3038 137.223 89.757C136.77 90.2102 136.515 90.8247 136.514 91.4656V110.4C136.516 110.766 136.406 111.123 136.2 111.425C135.993 111.727 135.7 111.958 135.359 112.089C135.148 112.172 134.923 112.214 134.697 112.215Z" fill="white"/>
<path d="M134.697 112.215C134.446 112.214 134.198 112.162 133.969 112.06C133.74 111.959 133.534 111.811 133.365 111.625L113.389 89.8321C113.162 89.5853 112.887 89.3883 112.58 89.2533C112.273 89.1184 111.942 89.0485 111.607 89.0481H6.04243C4.44043 89.0463 2.90456 88.4091 1.77178 87.2764C0.63899 86.1436 0.00180245 84.6077 3.8147e-06 83.0057V44.9368C0.00180139 43.3348 0.638989 41.7989 1.77178 40.6661C2.90456 39.5333 4.44043 38.8962 6.04243 38.8944H142.809C144.411 38.8962 145.947 39.5333 147.08 40.6661C148.212 41.7989 148.849 43.3348 148.851 44.9368V83.0057C148.849 84.6077 148.212 86.1436 147.08 87.2764C145.947 88.4092 144.411 89.0464 142.809 89.0482H138.931C138.291 89.0489 137.676 89.3038 137.223 89.757C136.77 90.2102 136.515 90.8247 136.514 91.4656V110.4C136.516 110.766 136.406 111.123 136.2 111.425C135.993 111.727 135.7 111.958 135.359 112.089C135.148 112.172 134.923 112.214 134.697 112.215ZM6.04243 39.6995C4.6539 39.7011 3.32269 40.2534 2.34085 41.2352C1.35901 42.2171 0.80673 43.5483 0.805163 44.9368V83.0057C0.806732 84.3943 1.35902 85.7255 2.34086 86.7073C3.3227 87.6891 4.6539 88.2414 6.04243 88.243H111.607C112.053 88.2435 112.495 88.3366 112.904 88.5165C113.313 88.6963 113.68 88.959 113.982 89.288L133.959 111.081C134.096 111.231 134.275 111.335 134.473 111.381C134.671 111.427 134.878 111.413 135.067 111.339C135.256 111.265 135.418 111.136 135.533 110.969C135.648 110.801 135.709 110.603 135.709 110.4V91.4656C135.71 90.6112 136.05 89.7921 136.654 89.1879C137.258 88.5838 138.077 88.244 138.931 88.243H142.809C144.197 88.2414 145.529 87.6891 146.51 86.7073C147.492 85.7255 148.045 84.3943 148.046 83.0057V44.9368C148.045 43.5483 147.492 42.2171 146.51 41.2352C145.529 40.2534 144.197 39.7011 142.809 39.6995H6.04243Z" fill="#3F3D56"/>
<path d="M14.8214 55.6877C17.7415 55.6877 20.1087 53.3205 20.1087 50.4003C20.1087 47.4802 17.7415 45.113 14.8214 45.113C11.9012 45.113 9.53401 47.4802 9.53401 50.4003C9.53401 53.3205 11.9012 55.6877 14.8214 55.6877Z" fill="#F68420"/>
<path d="M136.64 79.6571H12.211C11.8404 79.6575 11.4734 79.5849 11.1309 79.4434C10.7883 79.3019 10.4771 79.0942 10.2149 78.8323C9.95265 78.5704 9.74463 78.2594 9.6027 77.9171C9.46078 77.5747 9.38773 77.2077 9.38773 76.8371C9.38773 76.4665 9.46078 76.0996 9.6027 75.7572C9.74463 75.4149 9.95265 75.1039 10.2149 74.842C10.4771 74.5801 10.7883 74.3724 11.1309 74.2309C11.4734 74.0894 11.8404 74.0168 12.211 74.0172H136.64C137.388 74.0181 138.104 74.3156 138.632 74.8443C139.16 75.3731 139.457 76.0898 139.457 76.8371C139.457 77.5844 139.16 78.3012 138.632 78.8299C138.104 79.3587 137.388 79.6562 136.64 79.6571Z" fill="#E6E6E6"/>
<path d="M96.1038 67.6724H12.211C11.8404 67.6728 11.4734 67.6002 11.1309 67.4587C10.7883 67.3172 10.4771 67.1095 10.2149 66.8476C9.95265 66.5857 9.74463 66.2747 9.6027 65.9324C9.46078 65.59 9.38773 65.223 9.38773 64.8524C9.38773 64.4818 9.46078 64.1149 9.6027 63.7725C9.74463 63.4302 9.95265 63.1192 10.2149 62.8573C10.4771 62.5954 10.7883 62.3877 11.1309 62.2462C11.4734 62.1047 11.8404 62.0321 12.211 62.0325H96.1038C96.8517 62.0325 97.569 62.3296 98.0978 62.8585C98.6267 63.3873 98.9238 64.1046 98.9238 64.8524C98.9238 65.6003 98.6267 66.3176 98.0978 66.8464C97.569 67.3753 96.8517 67.6724 96.1038 67.6724Z" fill="#E6E6E6"/>
<path d="M223.458 241.317C223.117 241.186 222.824 240.955 222.617 240.653C222.411 240.351 222.301 239.994 222.303 239.628V220.694C222.302 220.053 222.047 219.438 221.594 218.985C221.141 218.532 220.527 218.277 219.886 218.276H216.008C214.406 218.274 212.87 217.637 211.738 216.504C210.605 215.372 209.968 213.836 209.966 212.234V174.165C209.968 172.563 210.605 171.027 211.738 169.894C212.87 168.761 214.406 168.124 216.008 168.122H352.775C354.377 168.124 355.913 168.761 357.045 169.894C358.178 171.027 358.815 172.563 358.817 174.165V212.234C358.815 213.836 358.178 215.372 357.045 216.504C355.913 217.637 354.377 218.274 352.775 218.276H247.21C246.875 218.277 246.544 218.346 246.237 218.481C245.931 218.616 245.655 218.813 245.429 219.06L225.452 240.853C225.283 241.039 225.078 241.187 224.848 241.288C224.619 241.39 224.371 241.442 224.12 241.443C223.894 241.442 223.669 241.4 223.458 241.317Z" fill="white"/>
<path d="M223.458 241.317C223.117 241.186 222.824 240.955 222.617 240.653C222.411 240.351 222.301 239.994 222.303 239.628V220.694C222.302 220.053 222.047 219.438 221.594 218.985C221.141 218.532 220.527 218.277 219.886 218.276H216.008C214.406 218.274 212.87 217.637 211.738 216.504C210.605 215.372 209.968 213.836 209.966 212.234V174.165C209.968 172.563 210.605 171.027 211.738 169.894C212.87 168.761 214.406 168.124 216.008 168.122H352.775C354.377 168.124 355.913 168.761 357.045 169.894C358.178 171.027 358.815 172.563 358.817 174.165V212.234C358.815 213.836 358.178 215.372 357.045 216.504C355.913 217.637 354.377 218.274 352.775 218.276H247.21C246.875 218.277 246.544 218.346 246.237 218.481C245.931 218.616 245.655 218.813 245.429 219.06L225.452 240.853C225.283 241.039 225.078 241.187 224.848 241.288C224.619 241.39 224.371 241.442 224.12 241.443C223.894 241.442 223.669 241.4 223.458 241.317ZM216.008 168.928C214.62 168.929 213.289 169.481 212.307 170.463C211.325 171.445 210.773 172.776 210.771 174.165V212.234C210.773 213.622 211.325 214.954 212.307 215.935C213.289 216.917 214.62 217.469 216.008 217.471H219.886C220.74 217.472 221.559 217.812 222.163 218.416C222.767 219.02 223.107 219.839 223.108 220.694V239.628C223.108 239.831 223.169 240.029 223.284 240.197C223.399 240.364 223.561 240.493 223.75 240.567C223.94 240.641 224.147 240.655 224.344 240.609C224.542 240.563 224.721 240.459 224.858 240.309L244.835 218.516C245.137 218.187 245.504 217.924 245.913 217.745C246.322 217.565 246.764 217.472 247.21 217.471H352.775C354.163 217.469 355.494 216.917 356.476 215.935C357.458 214.953 358.01 213.622 358.012 212.234V174.165C358.01 172.776 357.458 171.445 356.476 170.463C355.494 169.481 354.163 168.929 352.775 168.928H216.008Z" fill="#3F3D56"/>
<path d="M180.83 253.106C175.221 256.697 168.723 258.656 162.064 258.762C155.405 258.868 148.848 257.117 143.128 253.706C144.134 251.833 145.409 250.117 146.912 248.613C149.232 246.283 152.054 244.515 155.164 243.446C158.273 242.377 161.586 242.034 164.848 242.445C168.11 242.856 171.234 244.009 173.981 245.816C176.728 247.623 179.024 250.036 180.693 252.868C180.737 252.945 180.785 253.025 180.83 253.106Z" fill="#F68420"/>
<path d="M160.405 233.854C170.233 233.854 178.199 225.887 178.199 216.06C178.199 206.232 170.233 198.265 160.405 198.265C150.577 198.265 142.61 206.232 142.61 216.06C142.61 225.887 150.577 233.854 160.405 233.854Z" fill="#2F2E41"/>
<path d="M173.646 228.611C177.154 222.193 174.795 214.146 168.377 210.637C161.959 207.129 153.912 209.488 150.404 215.906C146.895 222.324 149.254 230.371 155.672 233.88C162.09 237.388 170.137 235.029 173.646 228.611Z" fill="#FFB8B8"/>
<path d="M148.108 213.928C151.135 216.014 154.727 217.124 158.402 217.109C157.091 218.018 155.599 218.633 154.027 218.909C158.914 219.958 163.965 219.986 168.864 218.993C169.953 218.818 171.003 218.457 171.97 217.926C172.451 217.657 172.871 217.29 173.201 216.848C173.531 216.406 173.765 215.9 173.887 215.362C174.212 213.503 172.763 211.813 171.257 210.674C168.952 208.958 166.294 207.775 163.475 207.212C160.656 206.649 157.748 206.719 154.959 207.418C153.139 207.888 151.315 208.683 150.132 210.145C148.95 211.608 148.6 213.862 149.726 215.367L148.108 213.928Z" fill="#2F2E41"/>
<path d="M161.494 259.169C152.779 259.166 144.357 256.021 137.773 250.311C131.19 244.602 126.885 236.709 125.65 228.082C124.415 219.456 126.331 210.673 131.048 203.344C135.764 196.016 142.965 190.634 151.329 188.186C159.693 185.737 168.659 186.387 176.583 190.014C184.507 193.642 190.857 200.005 194.469 207.936C198.081 215.867 198.712 224.835 196.247 233.194C193.781 241.553 188.385 248.743 181.047 253.445C175.212 257.186 168.425 259.173 161.494 259.169ZM161.494 187.51C154.486 187.509 147.635 189.586 141.808 193.479C135.981 197.372 131.44 202.906 128.758 209.38C126.076 215.854 125.374 222.978 126.741 229.851C128.108 236.724 131.482 243.038 136.437 247.993C141.393 252.948 147.706 256.323 154.579 257.69C161.452 259.057 168.576 258.355 175.051 255.673C181.525 252.991 187.058 248.449 190.951 242.622C194.844 236.795 196.921 229.944 196.921 222.937C196.91 213.544 193.174 204.539 186.533 197.898C179.891 191.256 170.886 187.52 161.494 187.51Z" fill="#3F3D56"/>
<path d="M226.981 184.513C229.901 184.513 232.268 182.146 232.268 179.226C232.268 176.306 229.901 173.938 226.981 173.938C224.061 173.938 221.693 176.306 221.693 179.226C221.693 182.146 224.061 184.513 226.981 184.513Z" fill="#F68420"/>
<path d="M348.8 208.483H224.37C224 208.483 223.633 208.41 223.29 208.269C222.948 208.127 222.636 207.92 222.374 207.658C222.112 207.396 221.904 207.085 221.762 206.743C221.62 206.4 221.547 206.033 221.547 205.663C221.547 205.292 221.62 204.925 221.762 204.583C221.904 204.24 222.112 203.929 222.374 203.667C222.636 203.406 222.948 203.198 223.29 203.056C223.633 202.915 224 202.842 224.37 202.843H348.8C349.548 202.843 350.265 203.14 350.794 203.669C351.323 204.197 351.62 204.915 351.62 205.663C351.62 206.41 351.323 207.128 350.794 207.657C350.265 208.185 349.548 208.483 348.8 208.483Z" fill="#E6E6E6"/>
<path d="M308.263 196.498H224.37C224 196.498 223.633 196.426 223.29 196.284C222.948 196.143 222.636 195.935 222.374 195.673C222.112 195.411 221.904 195.1 221.762 194.758C221.62 194.415 221.547 194.049 221.547 193.678C221.547 193.307 221.62 192.94 221.762 192.598C221.904 192.256 222.112 191.945 222.374 191.683C222.636 191.421 222.948 191.213 223.29 191.072C223.633 190.93 224 190.858 224.37 190.858H308.263C309.011 190.859 309.727 191.156 310.255 191.685C310.783 192.214 311.08 192.931 311.08 193.678C311.08 194.425 310.783 195.142 310.255 195.671C309.727 196.199 309.011 196.497 308.263 196.498Z" fill="#E6E6E6"/>
<path d="M223.288 244.922C228.736 244.922 233.153 244.431 233.153 243.827C233.153 243.222 228.736 242.732 223.288 242.732C217.84 242.732 213.423 243.222 213.423 243.827C213.423 244.431 217.84 244.922 223.288 244.922Z" fill="#F2F2F2"/>
<path d="M135.123 116.096C140.571 116.096 144.988 115.606 144.988 115.001C144.988 114.397 140.571 113.906 135.123 113.906C129.675 113.906 125.258 114.397 125.258 115.001C125.258 115.606 129.675 116.096 135.123 116.096Z" fill="#F2F2F2"/>
</g>
<defs>
<clipPath id="clip0">
<rect width="358.817" height="300" fill="white"/>
</clipPath>
</defs>
</svg>
