<svg width="304" height="300" viewBox="0 0 304 300" fill="none" xmlns="http://www.w3.org/2000/svg">
<path d="M149.588 71.2907H147.939V26.1345C147.939 19.2032 145.185 12.5558 140.284 7.65461C135.383 2.75345 128.736 0 121.804 0H26.1345C19.2032 0 12.5558 2.75345 7.65463 7.65461C2.75346 12.5558 0 19.2032 0 26.1345V273.866C0 280.797 2.75346 287.444 7.65463 292.345C12.5558 297.247 19.2032 300 26.1345 300H121.804C128.735 300 135.383 297.247 140.284 292.345C145.185 287.444 147.938 280.797 147.938 273.866V103.434H149.587L149.588 71.2907Z" fill="#3F3D56"/>
<path d="M122.859 6.79871H110.371C110.945 8.20679 111.165 9.73458 111.01 11.2475C110.855 12.7603 110.33 14.2119 109.482 15.4741C108.633 16.7364 107.488 17.7707 106.146 18.4858C104.803 19.2009 103.306 19.5749 101.785 19.5749H46.9773C45.4567 19.5748 43.9595 19.2007 42.6175 18.4856C41.2755 17.7705 40.13 16.7364 39.2818 15.4743C38.4336 14.2122 37.9089 12.7609 37.7537 11.2482C37.5986 9.73555 37.8178 8.20793 38.3921 6.79994H26.7264C21.55 6.79994 16.5856 8.85625 12.9254 12.5165C9.26512 16.1768 7.20883 21.1411 7.20883 26.3175V273.684C7.20883 278.86 9.26512 283.824 12.9254 287.485C16.5856 291.145 21.55 293.201 26.7264 293.201H122.855C128.032 293.201 132.996 291.145 136.656 287.485C140.316 283.824 142.373 278.86 142.373 273.684V273.684V26.3163C142.373 21.1399 140.316 16.1755 136.656 12.5153C132.996 8.85502 128.032 6.79871 122.855 6.79871H122.859Z" fill="white"/>
<path d="M130.147 55.4373H19.4397V244.563H130.147V55.4373Z" fill="#E6E6E6"/>
<path d="M74.9578 279.378C80.8769 279.378 85.6754 274.579 85.6754 268.66C85.6754 262.741 80.8769 257.942 74.9578 257.942C69.0386 257.942 64.2401 262.741 64.2401 268.66C64.2401 274.579 69.0386 279.378 74.9578 279.378Z" fill="#E6E6E6"/>
<path d="M126.19 264.807L124.965 276.643L131.903 275.827L132.719 266.032L126.19 264.807Z" fill="#FFB9B9"/>
<path d="M107.825 175.019C107.825 175.019 72.3171 209.301 94.7643 219.913H101.702C101.702 219.913 116.803 195.015 124.15 195.425L126.19 219.097L124.966 266.848L133.945 267.256C133.945 267.256 139.25 243.176 138.842 229.708L148.229 179.916L107.825 175.019Z" fill="#2F2E41"/>
<path d="M96.8039 218.281L101.701 219.913C101.701 219.913 120.884 215.424 122.106 215.832L125.904 215.806L125.78 206.036H109.456L96.8039 218.281Z" fill="#2F2E41"/>
<path d="M132.719 274.194C132.719 274.194 125.373 270.929 124.149 274.194C122.924 277.46 123.333 286.847 123.333 286.847C124.312 288.729 124.6 290.895 124.149 292.968C123.333 296.234 127.414 297.866 132.719 296.234C138.025 294.601 138.025 290.52 138.025 290.52L132.719 274.194Z" fill="#2F2E41"/>
<path d="M138.841 205.218C138.841 205.218 144.555 201.953 144.147 206.851C143.808 210.085 142.983 213.25 141.698 216.238C141.698 216.238 147.004 230.114 141.698 231.338C136.392 232.563 132.311 229.706 132.311 227.665C132.311 225.624 138.841 205.218 138.841 205.218Z" fill="#2F2E41"/>
<path d="M120.884 93.3928L121.7 108.902L128.638 115.023L136.393 104.004V92.9847L120.884 93.3928Z" fill="#FFB9B9"/>
<path d="M126.189 108.902L121.517 105.43L118.435 110.126L104.559 118.288L112.72 139.51L113.128 160.325C113.128 160.325 98.0278 175.834 107.007 177.875C115.986 179.916 147.82 184.405 149.452 180.732C151.084 177.059 147.412 139.103 147.412 139.103L148.636 106.86L136.393 102.434L126.189 108.902Z" fill="#F68420"/>
<path d="M101.293 134.751C101.293 134.751 98.0282 157.876 104.15 157.876C107.786 157.888 111.39 157.195 114.762 155.835L109.864 143.183L111.905 134.612L101.293 134.751Z" fill="#FFB9B9"/>
<path d="M110.68 155.02L115.17 155.836C115.17 155.836 128.23 147.675 129.046 147.266C129.862 146.857 115.986 139.919 115.986 139.919L106.599 143.592L110.68 155.02Z" fill="#FFB9B9"/>
<path opacity="0.1" d="M115.986 139.919L110.091 142.226L111.905 134.614L101.294 134.75C101.294 134.75 98.0286 157.875 104.151 157.875C107.787 157.888 111.39 157.195 114.762 155.835L114.731 155.755L115.17 155.835C115.17 155.835 128.23 147.673 129.047 147.264C129.863 146.855 115.986 139.919 115.986 139.919Z" fill="black"/>
<path d="M130.325 101.131C136.762 101.131 141.979 95.9136 141.979 89.4772C141.979 83.0407 136.762 77.823 130.325 77.823C123.889 77.823 118.671 83.0407 118.671 89.4772C118.671 95.9136 123.889 101.131 130.325 101.131Z" fill="#FFB9B9"/>
<path d="M120.022 76.3296L117.744 75.4182C117.744 75.4182 122.506 70.1765 129.129 70.6324L127.266 68.5812C127.266 68.5812 131.82 66.758 135.96 71.5438C138.137 74.0583 140.655 77.0168 142.226 80.3479H144.665L143.647 82.5887L147.208 84.8307L143.552 84.428C143.898 86.3627 143.779 88.3521 143.206 90.232L143.304 92.0045C143.304 92.0045 139.066 85.4474 139.066 84.536V86.8151C139.066 86.8151 136.789 84.764 136.789 83.3966L135.547 84.9919L134.924 82.4811L127.265 84.9878L128.507 82.9366L123.746 83.6205L125.609 81.1138C125.609 81.1138 120.227 84.0764 120.02 86.5835C119.813 89.0906 117.122 92.2807 117.122 92.2807L115.88 90.0016C115.88 90.0016 114.018 79.7481 120.022 76.3296Z" fill="#2F2E41"/>
<path d="M140.474 127.676C138.414 130.22 137.264 133.381 137.209 136.654L115.577 135.838C115.577 135.838 109.864 135.022 109.864 139.103V143.184C109.864 143.184 112.721 141.96 114.353 143.184C115.986 144.409 133.535 155.02 142.106 150.939C150.677 146.858 152.717 130.941 152.717 130.941C152.717 130.941 144.963 124.41 140.474 127.676Z" fill="#FFB9B9"/>
<path d="M145.373 107.269L148.638 106.861C148.638 106.861 155.168 107.677 154.352 120.329C153.536 132.981 153.128 133.797 153.128 133.797C153.128 133.797 144.557 126.043 138.435 129.716L145.373 107.269Z" fill="#F68420"/>
<path d="M106.191 118.29H104.559C102.443 120.962 101.293 124.269 101.293 127.677C101.256 131.326 100.776 134.958 99.8651 138.492L112.721 136.248L106.191 118.29Z" fill="#F68420"/>
<path d="M303.284 55.4266H184.775V78.8244H303.284V55.4266Z" fill="#E6E6E6"/>
<path d="M187.301 76.2983H300.758V57.9547H187.301V76.2983Z" fill="white"/>
<path d="M197.233 59.9849C198.616 59.9849 199.967 60.3948 201.116 61.1627C202.266 61.9307 203.161 63.0223 203.69 64.2994C204.219 65.5765 204.358 66.9817 204.088 68.3375C203.819 69.6932 203.153 70.9386 202.175 71.916C201.198 72.8935 199.953 73.5591 198.597 73.8288C197.241 74.0985 195.836 73.9601 194.559 73.4311C193.282 72.9021 192.19 72.0063 191.422 70.8569C190.654 69.7076 190.244 68.3563 190.244 66.974C190.244 65.1204 190.981 63.3426 192.291 62.0319C193.602 60.7212 195.38 59.9849 197.233 59.9849V59.9849Z" fill="#F68420"/>
<path d="M282.924 64.239H213.946V65.7584H282.924V64.239Z" fill="#E6E6E6"/>
<path d="M282.924 68.1892H213.946V69.7086H282.924V68.1892Z" fill="#E6E6E6"/>
<path d="M303.284 88.816H184.775V112.214H303.284V88.816Z" fill="#E6E6E6"/>
<path d="M187.301 109.688H300.758V91.3441H187.301V109.688Z" fill="white"/>
<path d="M197.233 107.353C201.093 107.353 204.222 104.223 204.222 100.363C204.222 96.5034 201.093 93.3743 197.233 93.3743C193.373 93.3743 190.244 96.5034 190.244 100.363C190.244 104.223 193.373 107.353 197.233 107.353Z" fill="#F68420"/>
<path d="M282.924 97.6284H213.946V99.1478H282.924V97.6284Z" fill="#E6E6E6"/>
<path d="M282.924 101.579H213.946V103.098H282.924V101.579Z" fill="#E6E6E6"/>
<path d="M303.284 122.206H184.775V145.603H303.284V122.206Z" fill="#E6E6E6"/>
<path d="M187.301 143.077H300.758V124.734H187.301V143.077Z" fill="white"/>
<path d="M197.233 140.742C201.093 140.742 204.222 137.613 204.222 133.753C204.222 129.893 201.093 126.764 197.233 126.764C193.373 126.764 190.244 129.893 190.244 133.753C190.244 137.613 193.373 140.742 197.233 140.742Z" fill="#F68420"/>
<path d="M282.924 131.018H213.946V132.537H282.924V131.018Z" fill="#E6E6E6"/>
<path d="M282.924 134.968H213.946V136.488H282.924V134.968Z" fill="#E6E6E6"/>
</svg>
